<svg xmlns="http://www.w3.org/2000/svg" width="32" height="32" viewBox="0 0 1024 1024">
<path d="M 717.00 205.00 L 819.00 205.00 L 819.00 307.00 L 922.00 307.00 L 922.00 717.00 L 819.00 717.00 L 819.00 819.00 L 717.00 819.00 L 717.00 922.00 L 467.25 921.93 C330.56,921.90 219.49,921.51 219.49,921.08 C219.49,921.08 219.49,921.08 219.50,921.08 C220.60,920.64 225.55,919.29 230.50,918.07 C271.77,907.91 303.66,870.10 306.68,827.75 L 307.30 819.00 L 717.00 819.00 L 717.00 717.00 L 819.00 717.00 L 819.00 307.00 L 717.00 307.00 L 717.00 205.00 L 205.00 205.00 L 205.00 716.70 L 196.25 717.32 C160.45,719.88 127.67,742.82 112.00,776.27 C107.91,785.00 104.00,797.66 104.00,802.17 C104.00,803.66 103.55,805.16 103.00,805.50 C103.00,805.50 103.00,805.50 103.00,805.50 C102.33,805.50 102.08,688.57 102.25,454.31 L 102.50 102.50 L 409.75 102.25 L 717.00 102.00 ZM 614.00 614.00 L 614.00 717.00 L 307.00 717.00 L 307.00 307.00 L 614.00 307.00 L 614.00 410.00 L 717.00 410.00 L 717.00 614.00 ZM 614.00 614.00 L 614.00 410.00 L 410.00 410.00 L 410.00 614.00 Z" fill="#111111"/>
<path d="M 306.66 810.74 L 307.30 819.00 L 307.30 819.00 L 306.68 827.75 C303.66,870.10 271.77,907.91 230.50,918.07 C225.55,919.29 220.60,920.64 219.50,921.08 C219.49,921.08 219.49,921.08 219.49,921.08 C219.49,921.18 225.70,921.28 236.98,921.38 C210.52,921.24 194.47,921.08 193.00,920.92 C171.72,918.62 148.25,907.33 133.00,892.06 C115.67,874.71 105.47,853.03 102.98,828.25 C102.23,820.72 101.99,710.47 102.20,460.00 L 102.50 102.50 L 102.25 454.31 C102.08,688.57 102.33,805.50 103.00,805.50 C103.00,805.50 103.00,805.50 103.00,805.50 C103.55,805.16 104.00,803.66 104.00,802.17 C104.00,797.66 107.91,785.00 112.00,776.27 C127.67,742.82 160.45,719.88 196.25,717.32 L 205.00 716.70 L 205.00 716.70 L 213.65 717.37 C243.17,719.64 272.49,736.68 289.19,761.28 C298.76,775.38 305.38,794.12 306.66,810.74 Z" fill="#fd2e00"/>
</svg>
